<?xml version="1.0" encoding="UTF-8"?>
<svg id="Capa_2" data-name="Capa 2" xmlns="http://www.w3.org/2000/svg" viewBox="0 0 337 337">
  <defs>
    <style>
      .cls-1 {
        fill: #333;
      }

      .cls-2 {
        fill: #47b3e7;
      }
    </style>
  </defs>
  <g id="Capa_1-2" data-name="Capa 1">
    <g>
      <path class="cls-1" d="m168.5,37c17.62,0,34.43,3.48,49.8,9.8v40.92h0v62.5h-35.33l-22.03,36.08v.49h57.36v63h36.56V87.22h0V23.87C229.59,8.72,200.05,0,168.5,0,75.59,0,0,75.59,0,168.5c0,58.73,30.21,110.53,75.9,140.7v-47.43c-24.01-23.84-38.9-56.85-38.9-93.27,0-72.51,58.99-131.5,131.5-131.5Z"/>
      <path class="cls-2" d="m261.1,27.8v47.43c24.01,23.84,38.89,56.85,38.89,93.27,0,72.51-58.99,131.5-131.5,131.5-17.61,0-34.43-3.48-49.8-9.8v-40.42h0v-63h35.33l22.03-36.08v-.49h-57.36v-26.43h67.36l25.77-35.89v-.68H82.14v162.57h0v63.35c25.27,15.15,54.81,23.87,86.36,23.87,92.91,0,168.5-75.59,168.5-168.5,0-58.73-30.21-110.53-75.89-140.7Z"/>
    </g>
  </g>
</svg>